# xmcd
#
# Track frame offsets:
#	150
#	17735
#	35611
#	54496
#	71338
#	91261
#	106177
#	126304
#	143648
#	163951
#
# Disc length: 2423 seconds
#
# Revision: 0
# Processed by: cddbd v1.4PL0 Copyright (c) Steve Scherf et al.
# Submitted via: dBpowerAMP V4.0
#
DISCID=8309750a
DTITLE=ไฮเปอร์ - Copy
DYEAR=2003
DGENRE=Blues
TTITLE0=ก๊อปปี้
TTITLE1=ทำไม
TTITLE2=ตัดให้ขาด
TTITLE3=กล้วย
TTITLE4=เชื่อใจ
TTITLE5=กังฟูแมน
TTITLE6=เปิดท้าย (ขายเธอ)
TTITLE7=พูดออกมาเลย
TTITLE8=โจร
TTITLE9=ปอดบวม
EXTD=
EXTT0=
EXTT1=
EXTT2=
EXTT3=
EXTT4=
EXTT5=
EXTT6=
EXTT7=
EXTT8=
EXTT9=
PLAYORDER=
